REM DIRINDEX 1\2,1\3,1\4,1\5,1\6
REM DIRNAME folder01,folder02,folder03,folder04,folder05,folder06
TITLE ""
FILE "DISC1Track12.mp3" MP3
  TRACK 01 AUDIO
    TITLE "0:"
    INDEX 01 00:00:00
  TRACK 02 AUDIO
    TITLE "2:cjc129_0304"
    INDEX 01 00:03:14
  TRACK 03 AUDIO
    TITLE "0:"
    INDEX 01 00:10:43
  TRACK 04 AUDIO
    TITLE "3:cjc129_0305"
    INDEX 01 00:11:56
  TRACK 05 AUDIO
    TITLE "0:"
    INDEX 01 00:12:61
  TRACK 06 AUDIO
    TITLE "5:cjc129_0306"
    INDEX 01 00:13:20
  TRACK 07 AUDIO
    TITLE "0:"
    INDEX 01 00:17:55
  TRACK 08 AUDIO
    TITLE "4:cjc129_0307"
    INDEX 01 00:18:42
  TRACK 09 AUDIO
    TITLE "0:"
    INDEX 01 00:19:46
  TRACK 10 AUDIO
    TITLE "6:cjc129_0308"
    INDEX 01 00:20:04
  TRACK 11 AUDIO
    TITLE "0:"
    INDEX 01 00:24:16
  TRACK 12 AUDIO
    TITLE "3:cjc129_0309"
    INDEX 01 00:25:68
  TRACK 13 AUDIO
    TITLE "0:"
    INDEX 01 00:26:71
  TRACK 14 AUDIO
    TITLE "5:cjc129_0310"
    INDEX 01 00:27:28
  TRACK 15 AUDIO
    TITLE "0:"
    INDEX 01 00:32:64
  TRACK 16 AUDIO
    TITLE "4:cjc129_0311"
    INDEX 01 00:33:54
  TRACK 17 AUDIO
    TITLE "0:"
    INDEX 01 00:34:59
  TRACK 18 AUDIO
    TITLE "6:cjc129_0312"
    INDEX 01 00:35:14
  TRACK 19 AUDIO
    TITLE "0:"
    INDEX 01 00:39:58
  TRACK 20 AUDIO
    TITLE "3:cjc129_0313"
    INDEX 01 00:41:32
  TRACK 21 AUDIO
    TITLE "0:"
    INDEX 01 00:42:41
  TRACK 22 AUDIO
    TITLE "5:cjc129_0314"
    INDEX 01 00:42:74
  TRACK 23 AUDIO
    TITLE "0:"
    INDEX 01 00:48:65
  TRACK 24 AUDIO
    TITLE "4:cjc129_0315"
    INDEX 01 00:49:57
  TRACK 25 AUDIO
    TITLE "0:"
    INDEX 01 00:50:64
  TRACK 26 AUDIO
    TITLE "6:cjc129_0316"
    INDEX 01 00:51:24
  TRACK 27 AUDIO
    TITLE "0:"
    INDEX 01 00:57:13
  TRACK 28 AUDIO
    TITLE "3:cjc129_0317"
    INDEX 01 00:58:64
  TRACK 29 AUDIO
    TITLE "0:"
    INDEX 01 00:59:67
  TRACK 30 AUDIO
    TITLE "5:cjc129_0318"
    INDEX 01 01:00:23
  TRACK 31 AUDIO
    TITLE "0:"
    INDEX 01 01:03:43
  TRACK 32 AUDIO
    TITLE "4:cjc129_0319"
    INDEX 01 01:04:37
  TRACK 33 AUDIO
    TITLE "0:"
    INDEX 01 01:05:40
  TRACK 34 AUDIO
    TITLE "6:cjc129_0320"
    INDEX 01 01:05:71
  TRACK 35 AUDIO
    TITLE "0:"
    INDEX 01 01:08:52
  TRACK 36 AUDIO
    TITLE "3:cjc129_0321"
    INDEX 01 01:10:30
  TRACK 37 AUDIO
    TITLE "0:"
    INDEX 01 01:11:37
  TRACK 38 AUDIO
    TITLE "5:cjc129_0322"
    INDEX 01 01:13:06
  TRACK 39 AUDIO
    TITLE "0:"
    INDEX 01 01:14:65
  TRACK 40 AUDIO
    TITLE "4:cjc129_0323"
    INDEX 01 01:15:60
  TRACK 41 AUDIO
    TITLE "0:"
    INDEX 01 01:16:67
  TRACK 42 AUDIO
    TITLE "6:cjc129_0324"
    INDEX 01 01:17:26
  TRACK 43 AUDIO
    TITLE "0:"
    INDEX 01 01:21:31
  TRACK 44 AUDIO
    TITLE "3:cjc129_0325"
    INDEX 01 01:23:07
  TRACK 45 AUDIO
    TITLE "0:"
    INDEX 01 01:24:16
  TRACK 46 AUDIO
    TITLE "5:cjc129_0326"
    INDEX 01 01:25:45
  TRACK 47 AUDIO
    TITLE "0:"
    INDEX 01 01:28:31
  TRACK 48 AUDIO
    TITLE "4:cjc129_0327"
    INDEX 01 01:29:21
  TRACK 49 AUDIO
    TITLE "0:"
    INDEX 01 01:30:28
  TRACK 50 AUDIO
    TITLE "6:cjc129_0328"
    INDEX 01 01:30:62
  TRACK 51 AUDIO
    TITLE "0:"
    INDEX 01 01:34:55
  TRACK 52 AUDIO
    TITLE "3:cjc129_0329"
    INDEX 01 01:36:31
  TRACK 53 AUDIO
    TITLE "0:"
    INDEX 01 01:37:40
  TRACK 54 AUDIO
    TITLE "5:cjc129_0330"
    INDEX 01 01:39:06
  TRACK 55 AUDIO
    TITLE "0:"
    INDEX 01 01:50:74
  TRACK 56 AUDIO
    TITLE "4:cjc129_0331"
    INDEX 01 01:51:66
  TRACK 57 AUDIO
    TITLE "0:"
    INDEX 01 01:52:73
  TRACK 58 AUDIO
    TITLE "6:cjc129_0332"
    INDEX 01 01:53:29
  TRACK 59 AUDIO
    TITLE "0:"
    INDEX 01 01:57:37
  TRACK 60 AUDIO
    TITLE "3:cjc129_0333"
    INDEX 01 01:59:14
  TRACK 61 AUDIO
    TITLE "0:"
    INDEX 01 02:00:24
  TRACK 62 AUDIO
    TITLE "5:cjc129_0334"
    INDEX 01 02:01:50
  TRACK 63 AUDIO
    TITLE "0:"
    INDEX 01 02:07:26
  TRACK 64 AUDIO
    TITLE "4:cjc129_0335"
    INDEX 01 02:08:15
  TRACK 65 AUDIO
    TITLE "0:"
    INDEX 01 02:09:22
  TRACK 66 AUDIO
    TITLE "6:cjc129_0336"
    INDEX 01 02:09:54
  TRACK 67 AUDIO
    TITLE "0:"
    INDEX 01 02:13:71
